<svg xmlns="http://www.w3.org/2000/svg" viewBox="0 0 300 300" width="300" height="300">
	<defs>
		<linearGradient id="grd1" gradientUnits="userSpaceOnUse"  x1="67.696" y1="292.699" x2="231.824" y2="8.421">
			<stop offset="0" stop-color="#ff6e02"  />
			<stop offset="0.5" stop-color="#ffff00"  />
			<stop offset="1" stop-color="#ff6d00"  />
		</linearGradient>
		<linearGradient id="grd2" gradientUnits="userSpaceOnUse"  x1="0" y1="0" x2="0" y2="0">
			<stop offset="0" stop-color="#ff6e02"  />
			<stop offset="0.5" stop-color="#ffff00"  />
			<stop offset="1" stop-color="#ff6d00"  />
		</linearGradient>
		<linearGradient id="grd3" gradientUnits="userSpaceOnUse"  x1="0" y1="0" x2="0" y2="0">
			<stop offset="0" stop-color="#ff6e02"  />
			<stop offset="0.5" stop-color="#ffff00"  />
			<stop offset="1" stop-color="#ff6d00"  />
		</linearGradient>
		<linearGradient id="grd4" gradientUnits="userSpaceOnUse"  x1="0" y1="0" x2="0" y2="0">
			<stop offset="0" stop-color="#ff6e02"  />
			<stop offset="0.5" stop-color="#ffff00"  />
			<stop offset="1" stop-color="#ff6d00"  />
		</linearGradient>
	</defs>
	<style>
		tspan { white-space:pre }
		.shp0 { fill: #ff0000 } 
		.shp1 { fill: url(#grd1) } 
		.shp2 { fill: url(#grd2) } 
		.shp3 { fill: url(#grd3) } 
		.shp4 { fill: url(#grd4) } 
	</style>
	<path id="Shape 1" class="shp0" d="null" />
	<path id="Shape 2" class="shp1" d="M215.11 257.95L149.76 222.3L84.23 257.95L96.89 182.53L43.84 129.33L117 118.23L149.76 49.8L182.52 118.23L255.68 129.33L202.63 182.53L215.11 257.95ZM284.28 110.35L197.26 97.27L158.25 15.77C156.06 10.87 153.23 8.42 149.76 8.42C146.29 8.42 143.46 10.87 141.27 15.77L102.26 97.27L15.24 110.35C8.77 111.42 5.53 114.17 5.53 118.59C5.53 121.09 6.98 123.96 9.87 127.18L72.97 190.6L58.06 280.16C57.82 281.83 57.71 283.03 57.71 283.74C57.71 286.25 58.32 288.37 59.53 290.1C60.74 291.83 62.56 292.7 64.99 292.7C67.07 292.7 69.38 291.98 71.93 290.55L149.76 248.28L227.6 290.55C230.02 291.98 232.33 292.7 234.53 292.7C239.27 292.7 241.64 289.71 241.64 283.74C241.64 282.19 241.58 280.99 241.46 280.16L226.55 190.6L289.48 127.18C292.49 124.08 293.99 121.21 293.99 118.59C293.99 114.17 290.75 111.42 284.28 110.35L284.28 110.35Z" />
	<path id="Shape 6" class="shp2" d="null" />
	<path id="Shape 3" class="shp3" d="null" />
	<path id="Shape 4" class="shp4" d="null" />
</svg>